<?xml version="1.0" encoding="UTF-8"?>
<svg version="1.1" xmlns="http://www.w3.org/2000/svg" width="512" height="512">
<path d="M0 0 C5.86895302 4.46093066 10.32544638 8.88632788 11.7421875 16.32421875 C12.57915342 23.98245695 12.20180079 30.84539167 7.7421875 37.32421875 C4.03877981 41.3539513 1.10661513 43.98311184 -4.2578125 45.32421875 C-4.2578125 73.04421875 -4.2578125 100.76421875 -4.2578125 129.32421875 C10.9221875 129.32421875 26.1021875 129.32421875 41.7421875 129.32421875 C57.7421875 159.72421875 57.7421875 159.72421875 57.7421875 162.32421875 C64.3421875 162.32421875 70.9421875 162.32421875 77.7421875 162.32421875 C77.7421875 195.32421875 77.7421875 228.32421875 77.7421875 262.32421875 C72.4621875 262.32421875 67.1821875 262.32421875 61.7421875 262.32421875 C61.7421875 305.55421875 61.7421875 348.78421875 61.7421875 393.32421875 C69.0021875 393.32421875 76.2621875 393.32421875 83.7421875 393.32421875 C89.0221875 403.88421875 94.3021875 414.44421875 99.7421875 425.32421875 C154.1921875 425.81921875 154.1921875 425.81921875 209.7421875 426.32421875 C209.7421875 431.93421875 209.7421875 437.54421875 209.7421875 443.32421875 C62.5621875 443.32421875 -84.6178125 443.32421875 -236.2578125 443.32421875 C-236.2578125 437.71421875 -236.2578125 432.10421875 -236.2578125 426.32421875 C-199.9578125 425.99421875 -163.6578125 425.66421875 -126.2578125 425.32421875 C-120.9778125 414.76421875 -115.6978125 404.20421875 -110.2578125 393.32421875 C-102.9978125 393.32421875 -95.7378125 393.32421875 -88.2578125 393.32421875 C-88.2578125 350.09421875 -88.2578125 306.86421875 -88.2578125 262.32421875 C-93.5378125 262.32421875 -98.8178125 262.32421875 -104.2578125 262.32421875 C-104.2578125 229.32421875 -104.2578125 196.32421875 -104.2578125 162.32421875 C-97.6578125 162.32421875 -91.0578125 162.32421875 -84.2578125 162.32421875 C-83.2678125 159.35421875 -83.2678125 159.35421875 -82.2578125 156.32421875 C-81.29295661 154.22763201 -80.28927477 152.14861413 -79.25390625 150.0859375 C-78.39055664 148.36213867 -78.39055664 148.36213867 -77.50976562 146.60351562 C-77.21207275 146.0143335 -76.91437988 145.42515137 -76.60766602 144.81811523 C-75.69014914 143.00149565 -74.77920073 141.18169291 -73.86914062 139.36132812 C-69.39819834 130.46460459 -69.39819834 130.46460459 -68.2578125 129.32421875 C-66.81491463 129.2312606 -65.36751465 129.20675362 -63.92163086 129.21069336 C-62.52092346 129.21087463 -62.52092346 129.21087463 -61.09191895 129.21105957 C-60.10381226 129.21617554 -59.11570557 129.2212915 -58.09765625 129.2265625 C-57.19438599 129.22756958 -56.29111572 129.22857666 -55.36047363 129.22961426 C-51.97207376 129.23486363 -48.58369191 129.24882477 -45.1953125 129.26171875 C-37.6259375 129.28234375 -30.0565625 129.30296875 -22.2578125 129.32421875 C-22.2578125 101.60421875 -22.2578125 73.88421875 -22.2578125 45.32421875 C-25.2278125 44.33421875 -25.2278125 44.33421875 -28.2578125 43.32421875 C-34.01139259 38.36423592 -37.8886139 33.23525673 -38.46484375 25.5703125 C-38.71813996 18.07462104 -38.30859789 12.12395821 -33.5234375 6.1640625 C-24.94635169 -2.99480238 -11.53194976 -7.05280189 0 0 Z " fill="#020201" transform="translate(269.2578125,68.67578125)"/>
<path d="M0 0 C38.28 0 76.56 0 116 0 C116 16.5 116 33 116 50 C94.22 50 72.44 50 50 50 C50 55.28 50 60.56 50 66 C71.78 66 93.56 66 116 66 C116 87.78 116 109.56 116 132 C77.72 132 39.44 132 0 132 C0 121.11 0 110.22 0 99 C24.42 99 48.84 99 74 99 C74 93.72 74 88.44 74 83 C49.58 83 25.16 83 0 83 C0 66.5 0 50 0 33 C21.78 33 43.56 33 66 33 C66 27.72 66 22.44 66 17 C44.22 17 22.44 17 0 17 C0 11.39 0 5.78 0 0 Z " fill="#939CA7" transform="translate(198,330)"/>
<path d="M0 0 C48.84 0 97.68 0 148 0 C148 21.78 148 43.56 148 66 C142.72 66 137.44 66 132 66 C132 49.5 132 33 132 16 C115.5 16 99 16 82 16 C82 32.5 82 49 82 66 C76.72 66 71.44 66 66 66 C66 49.5 66 33 66 16 C49.5 16 33 16 16 16 C16 32.5 16 49 16 66 C10.72 66 5.44 66 0 66 C0 44.22 0 22.44 0 0 Z " fill="#E5E8EC" transform="translate(182,248)"/>
<path d="M0 0 C21.5958023 -0.8998251 43.11061874 6.06384071 59.4375 20.625 C60.96820708 22.07296615 62.49061547 23.52982026 64 25 C64.86625 25.804375 65.7325 26.60875 66.625 27.4375 C83.90295772 46.07950701 92.90644885 68.7105973 92.28515625 94.18359375 C90.62656576 116.38144185 82.85748184 136.29244859 68 153 C67.34773438 153.74636719 66.69546875 154.49273437 66.0234375 155.26171875 C51.22726497 171.13851062 29.78708459 180.87008274 8.1875 182.2421875 C5.4571472 182.24862701 2.72677724 182.13983473 0 182 C0 176.39 0 170.78 0 165 C2.13855469 164.67128906 2.13855469 164.67128906 4.3203125 164.3359375 C26.1447958 160.80255881 45.77536995 153.34602551 59.30859375 134.84375 C71.31872676 117.36842847 76.16134699 96.8259241 72.34765625 75.796875 C69.29443241 63.26948448 63.61429865 51.64426914 55 42 C54.40703125 41.32582031 53.8140625 40.65164062 53.203125 39.95703125 C38.62646077 24.38650355 20.40145317 19.52800615 0 17 C0 11.39 0 5.78 0 0 Z " fill="#000000" transform="translate(305,0)"/>
<path d="M0 0 C3.279375 0.0309375 3.279375 0.0309375 6.625 0.0625 C6.625 5.6725 6.625 11.2825 6.625 17.0625 C4.84609375 17.28292969 4.84609375 17.28292969 3.03125 17.5078125 C-18.84872849 20.44121224 -36.80200378 27.66972882 -51.375 45.0625 C-64.05406977 62.58551016 -68.76358617 82.02655943 -66.08642578 103.36230469 C-62.8701936 122.19345201 -52.4865182 138.4783942 -37.375 150.0625 C-23.45203928 159.2627663 -9.69668385 162.5895176 6.625 165.0625 C6.625 170.6725 6.625 176.2825 6.625 182.0625 C-16.0430988 183.22496661 -37.56510213 174.56668112 -54.5625 159.6875 C-73.00779521 142.37864478 -84.2696396 120.30450804 -85.53515625 94.83984375 C-86.06408723 72.96969741 -80.07908922 53.79166561 -67.375 36.0625 C-66.7253125 35.14597656 -66.075625 34.22945312 -65.40625 33.28515625 C-52.34958715 15.92086488 -31.47375699 4.80790365 -10.44921875 0.45703125 C-6.93499541 0.00603181 -3.54202846 -0.03341536 0 0 Z " fill="#000000" transform="translate(200.375,-0.0625)"/>
<path d="M0 0 C56.76 0 113.52 0 172 0 C179 13 179 13 179 16 C117.62 16 56.24 16 -7 16 C-6 11 -6 11 0 0 Z " fill="#D29F6B" transform="translate(170,479)"/>
<path d="M0 0 C15.14190858 -0.80756846 28.49240763 4.33903345 40.125 14 C51.2282449 24.51979413 58.32992267 38.72044339 59.16796875 54.078125 C59.27832367 71.99976456 53.73714694 86.99145509 41.375 100.125 C31.11396209 109.97314965 17.96925955 116.18204359 3.5625 116.25 C2.386875 116.1675 1.21125 116.085 0 116 C0 110.39 0 104.78 0 99 C2.43375 98.46375 4.8675 97.9275 7.375 97.375 C19.55663827 94.42878342 28.63580592 88.76470997 35.3125 77.85546875 C36.31826566 75.92158846 37.20680879 74.03009831 38 72 C38.53367187 70.63488281 38.53367187 70.63488281 39.078125 69.2421875 C41.9081604 59.28909689 40.76475833 48.12070603 36 39 C31.90921869 31.7192571 27.33555884 26.98428831 20 23 C19.07058594 22.48695312 18.14117187 21.97390625 17.18359375 21.4453125 C11.69390437 18.95306088 5.89674558 18.16822318 0 17 C0 11.39 0 5.78 0 0 Z " fill="#000000" transform="translate(305,33)"/>
<path d="M0 0 C0 5.61 0 11.22 0 17 C-2.619375 17.53625 -5.23875 18.0725 -7.9375 18.625 C-14.96054663 20.19434005 -20.48519323 22.20123875 -26 27 C-26.886875 27.763125 -27.77375 28.52625 -28.6875 29.3125 C-37.44998263 39.49592576 -40.82749122 48.7054048 -40.34765625 62.125 C-39.87477043 67.39581727 -38.58307406 71.41143366 -36 76 C-35.56429687 76.77859375 -35.12859375 77.5571875 -34.6796875 78.359375 C-28.61674111 88.23236967 -20.68022409 93.98892552 -9.5390625 96.90625 C-6.36949965 97.64879401 -3.1855516 98.32935756 0 99 C0 104.61 0 110.22 0 116 C-14.41780991 117.01177613 -28.08725171 111.77048804 -38.9765625 102.453125 C-50.67719539 91.57321294 -58.29342337 77.22566522 -59.15234375 61.1484375 C-59.63730567 44.89251409 -54.72077469 30.74199131 -44.18359375 18.3125 C-32.07956538 5.49392255 -17.41996533 -0.43549913 0 0 Z " fill="#000000" transform="translate(207,33)"/>
<path d="M0 0 C29.7 0 59.4 0 90 0 C97 14 97 14 97 16 C62.68 16 28.36 16 -7 16 C-5 10 -5 10 0 0 Z " fill="#B3DC7E" transform="translate(211,215)"/>
<path d="M0 0 C5.61 0 11.22 0 17 0 C17 5.28 17 10.56 17 16 C22.61 16 28.22 16 34 16 C34 21.94 34 27.88 34 34 C28.39 34 22.78 34 17 34 C17 39.28 17 44.56 17 50 C11.39 50 5.78 50 0 50 C0 44.72 0 39.44 0 34 C-5.61 34 -11.22 34 -17 34 C-17 28.06 -17 22.12 -17 16 C-11.39 16 -5.78 16 0 16 C0 10.72 0 5.44 0 0 Z M1 17 C1 22.28 1 27.56 1 33 C5.95 33 10.9 33 16 33 C16 27.72 16 22.44 16 17 C11.05 17 6.1 17 1 17 Z " fill="#000000" transform="translate(33,396)"/>
<path d="M0 0 C5.61 0 11.22 0 17 0 C17 5.28 17 10.56 17 16 C22.61 16 28.22 16 34 16 C34 21.94 34 27.88 34 34 C28.39 34 22.78 34 17 34 C17 39.28 17 44.56 17 50 C11.39 50 5.78 50 0 50 C0 44.72 0 39.44 0 34 C-5.61 34 -11.22 34 -17 34 C-17 28.06 -17 22.12 -17 16 C-11.39 16 -5.78 16 0 16 C0 10.72 0 5.44 0 0 Z M1 17 C1 22.28 1 27.56 1 33 C5.95 33 10.9 33 16 33 C16 27.72 16 22.44 16 17 C11.05 17 6.1 17 1 17 Z " fill="#000000" transform="translate(396,330)"/>
<path d="M0 0 C5.61 0 11.22 0 17 0 C17 5.28 17 10.56 17 16 C22.61 16 28.22 16 34 16 C34 21.94 34 27.88 34 34 C28.39 34 22.78 34 17 34 C17 39.28 17 44.56 17 50 C11.39 50 5.78 50 0 50 C0 44.72 0 39.44 0 34 C-5.61 34 -11.22 34 -17 34 C-17 28.06 -17 22.12 -17 16 C-11.39 16 -5.78 16 0 16 C0 10.72 0 5.44 0 0 Z M1 17 C1 22.28 1 27.56 1 33 C5.95 33 10.9 33 16 33 C16 27.72 16 22.44 16 17 C11.05 17 6.1 17 1 17 Z " fill="#000000" transform="translate(74,206)"/>
<path d="M0 0 C5.94 0 11.88 0 18 0 C18 5.28 18 10.56 18 16 C23.28 16 28.56 16 34 16 C34 21.94 34 27.88 34 34 C28.72 34 23.44 34 18 34 C18 39.28 18 44.56 18 50 C12.06 50 6.12 50 0 50 C0 44.72 0 39.44 0 34 C-5.28 34 -10.56 34 -16 34 C-16 28.06 -16 22.12 -16 16 C-10.72 16 -5.44 16 0 16 C0 10.72 0 5.44 0 0 Z M1 17 C1 22.28 1 27.56 1 33 C6.28 33 11.56 33 17 33 C17 27.72 17 22.44 17 17 C11.72 17 6.44 17 1 17 Z " fill="#000000" transform="translate(445,173)"/>
<path d="M0 0 C5.28 0 10.56 0 16 0 C16 10.89 16 21.78 16 33 C10.72 33 5.44 33 0 33 C0 22.11 0 11.22 0 0 Z " fill="#FAD56F" transform="translate(281,281)"/>
<path d="M0 0 C5.28 0 10.56 0 16 0 C16 10.89 16 21.78 16 33 C10.72 33 5.44 33 0 33 C0 22.11 0 11.22 0 0 Z " fill="#FAD56F" transform="translate(215,281)"/>
<path d="M0 0 C5.61 0 11.22 0 17 0 C17 5.61 17 11.22 17 17 C11.39 17 5.78 17 0 17 C0 11.39 0 5.78 0 0 Z " fill="#000000" transform="translate(495,495)"/>
<path d="M0 0 C5.61 0 11.22 0 17 0 C17 5.61 17 11.22 17 17 C11.39 17 5.78 17 0 17 C0 11.39 0 5.78 0 0 Z " fill="#000000" transform="translate(0,495)"/>
<path d="M0 0 C2.5 1.5625 2.5 1.5625 4 4 C4.5625 7.4375 4.5625 7.4375 4 11 C1.55401113 14.38121991 0.10703441 15.76936783 -4 16.625 C-8.10703441 15.76936783 -9.55401113 14.38121991 -12 11 C-12.62491523 7.04220351 -12.61006839 4.99136114 -10.5 1.5625 C-6.97873756 -0.63828902 -4.04560357 -0.80414661 0 0 Z " fill="#F3CF6C" transform="translate(260,83)"/>
</svg>
