<?xml version="1.0" encoding="UTF-8"?>
<svg version="1.1" xmlns="http://www.w3.org/2000/svg" width="512" height="512">
<path d="M0 0 C0.97485352 0.19867676 1.94970703 0.39735352 2.95410156 0.60205078 C50.99902273 10.65218706 95.19347595 32.24879574 130.49975586 66.59692383 C132.56359956 68.52709628 134.79256034 70.23782168 137 72 C138.09809154 73.15466769 139.1624861 74.34249631 140.1875 75.5625 C142.1512211 77.87251171 144.12644722 80.13313755 146.21484375 82.33203125 C158.83899451 95.65184023 168.89858599 111.12108226 178 127 C178.42909668 127.74830078 178.85819336 128.49660156 179.30029297 129.26757812 C192.33570917 152.30783667 201.01067422 177.53589856 206.3125 203.4375 C206.45985596 204.15639404 206.60721191 204.87528809 206.7590332 205.6159668 C209.73289088 221.26225609 210.37300362 236.73568046 210.3125 252.625 C210.31034485 253.64290619 210.3081897 254.66081238 210.30596924 255.70956421 C210.25629854 270.31863523 210.00540191 284.65075853 207 299 C206.70198486 300.46228027 206.70198486 300.46228027 206.39794922 301.95410156 C196.54575995 349.05273222 175.55979251 392.15735483 142.5078125 427.28125 C140.73497467 429.20320503 139.06056591 431.11677239 137.41015625 433.13671875 C135.46130074 435.45197173 133.61689028 437.37801185 131.3125 439.3125 C128.30318744 441.86957821 125.39008138 444.49656708 122.5 447.1875 C89.24247051 477.05347016 47.13017529 496.39458716 3.5625 505.3125 C2.84360596 505.45985596 2.12471191 505.60721191 1.3840332 505.7590332 C-13.29160498 508.54840125 -27.81668838 509.34892619 -42.72729492 509.31567383 C-45.66688487 509.3125221 -48.6054558 509.33604926 -51.54492188 509.36132812 C-64.91806192 509.40598737 -77.81416711 508.20051542 -91 506 C-92.70555054 505.71781616 -92.70555054 505.71781616 -94.44555664 505.42993164 C-97.0412622 504.96367402 -99.61274939 504.4449418 -102.1875 503.875 C-103.57642456 503.56804199 -103.57642456 503.56804199 -104.9934082 503.25488281 C-138.16852023 495.54089209 -169.5454776 481.10858262 -197 461 C-197.57298828 460.58395508 -198.14597656 460.16791016 -198.73632812 459.73925781 C-206.29793619 454.2148153 -213.23654952 448.19792517 -220.02734375 441.76171875 C-222.01731577 439.88131657 -224.05585344 438.10349377 -226.17578125 436.37109375 C-228.45888878 434.45429393 -230.34823289 432.64711124 -232.25 430.375 C-234.19125892 428.08617944 -236.14372424 425.84865787 -238.2109375 423.671875 C-277.00743117 382.7409464 -301.92116325 322.2525356 -302.203125 265.76953125 C-302.21371445 264.35219948 -302.21371445 264.35219948 -302.22451782 262.90623474 C-302.45045553 223.80275741 -302.45045553 223.80275741 -299 207 C-298.80132324 205.98744141 -298.60264648 204.97488281 -298.39794922 203.93164062 C-288.82160799 156.04276119 -266.52743333 111.57651097 -232.40307617 76.50024414 C-230.47290372 74.43640044 -228.76217832 72.20743966 -227 70 C-225.84533231 68.90190846 -224.65750369 67.8375139 -223.4375 66.8125 C-220.1827826 64.04240045 -217.05312287 61.17553278 -213.9375 58.25 C-180.49974776 27.81425591 -136.07440676 8.23304644 -92 0 C-91.19498047 -0.16226074 -90.38996094 -0.32452148 -89.56054688 -0.49169922 C-61.56934616 -5.96455505 -27.91127604 -5.8459259 0 0 Z " fill="#020302" transform="translate(302,3)"/>
<path d="M0 0 C0 12.21 0 24.42 0 37 C-4.00125 37.37125 -8.0025 37.7425 -12.125 38.125 C-50.18382604 42.1563823 -84.30546328 58.71801306 -112 85 C-112.4729248 85.44569336 -112.94584961 85.89138672 -113.43310547 86.35058594 C-135.35788268 107.14095392 -150.63122881 133.77121962 -158.9375 162.75 C-159.22020752 163.73057373 -159.50291504 164.71114746 -159.79418945 165.72143555 C-163.75549691 180.41072693 -164.40636742 195.1312717 -164.375 210.25 C-164.37545319 211.10484985 -164.37590637 211.95969971 -164.37637329 212.8404541 C-164.35643891 225.65781455 -163.51512053 237.61276715 -160 250 C-159.78472656 250.95261719 -159.56945312 251.90523437 -159.34765625 252.88671875 C-152.35808663 282.71801915 -135.87142776 309.15686523 -114.39453125 330.6015625 C-113.00288038 331.9954836 -111.62582949 333.40492426 -110.2890625 334.8515625 C-88.05116048 358.55111066 -49.27253229 377.53815612 -16.79296875 379.16015625 C-10.64827115 379.69869318 -10.64827115 379.69869318 -5.1328125 377.671875 C-3.36627294 375.06470627 -3.61770035 373.05839722 -4 370 C-6.24011044 367.02272862 -8.20225408 366.5196156 -11.8125 366 C-51.22136356 359.64706394 -88.40094901 342.67812846 -114 311 C-114.74636719 310.1028125 -115.49273437 309.205625 -116.26171875 308.28125 C-130.26636418 290.86888079 -139.70538444 271.10394707 -145.875 249.6875 C-146.06626465 249.03193115 -146.2575293 248.3763623 -146.45458984 247.70092773 C-149.67262511 235.71878823 -150.33315814 223.49900985 -150.26074219 211.16601562 C-150.25000505 209.00101749 -150.26072537 206.83684861 -150.2734375 204.671875 C-150.28843721 191.67890518 -149.04099807 179.07092973 -145.3125 166.5625 C-145.05194824 165.6741748 -144.79139648 164.78584961 -144.52294922 163.87060547 C-142.0128258 155.58734698 -138.82519375 147.75636515 -135 140 C-134.68272949 139.35305176 -134.36545898 138.70610352 -134.03857422 138.03955078 C-129.76182833 129.42852431 -124.95902756 121.57696621 -119 114 C-118.00419922 112.69869141 -118.00419922 112.69869141 -116.98828125 111.37109375 C-102.4377878 92.89384976 -84.87866105 78.71143337 -64 68 C-63.37770508 67.67660645 -62.75541016 67.35321289 -62.11425781 67.02001953 C-52.41226673 62.03632974 -42.5291705 58.77000599 -32 56 C-30.85789063 55.690625 -29.71578125 55.38125 -28.5390625 55.0625 C-18.98801268 52.56046176 -11.07464009 52 -1 52 C-1 64.54 -1 77.08 -1 90 C-4.403125 90.515625 -7.80625 91.03125 -11.3125 91.5625 C-41.650035 96.63241945 -70.11352939 112.56963643 -88.34472656 137.73242188 C-107.99188431 165.94022444 -115.36819788 198.3110992 -110 232.4375 C-102.8931697 263.56741862 -84.70517987 291.4368435 -57.81640625 308.859375 C-46.07856498 316.23023447 -33.30623974 322.15697462 -19.6484375 324.8671875 C-16 326 -16 326 -14.44140625 328.171875 C-14.00634766 329.44804688 -14.00634766 329.44804688 -13.5625 330.75 C-10.78983048 337.3113515 -6.17660649 339.91169676 0 343 C7.42090169 343.74528424 13.75186239 343.68904601 20.12890625 339.55859375 C23.86519327 336.44632127 26.35489859 332.99448786 27.8515625 328.3671875 C29 326 29 326 30.93359375 325.1015625 C31.75988281 324.94429688 32.58617187 324.78703125 33.4375 324.625 C63.465293 317.5712271 90.11833575 299.97023443 106.859375 273.86816406 C123.70484259 246.2779419 129.90812544 214.1204312 123.10546875 182.234375 C119.07300401 165.82668115 111.96384086 150.75040112 101.69921875 137.33984375 C100.19525015 135.2688617 99.10632066 133.29453503 98 131 C100.662342 128.30818725 103.33066667 125.62237853 106 122.9375 C107.11568359 121.80924805 107.11568359 121.80924805 108.25390625 120.65820312 C119.58848578 109.27434281 119.58848578 109.27434281 126 105 C142.00079777 124.41031355 153.71186808 145.54339205 160 170 C160.29519531 171.0209375 160.59039062 172.041875 160.89453125 173.09375 C162.80983673 179.96243173 163.62989727 186.75938569 164.09057617 193.85913086 C164.38451664 197.37604209 164.74515658 199.64884633 166.83984375 202.53515625 C169.06517909 204.34663489 169.06517909 204.34663489 172.625 203.9375 C176.25516924 203.3249155 176.25516924 203.3249155 178 200 C182.17527064 166.00873905 161.52175018 128.09506369 142 102 C141.35160156 101.12601562 140.70320313 100.25203125 140.03515625 99.3515625 C138.69971594 97.56050137 137.3518298 95.77872342 136 94 C141.58002368 88.32765976 147.15072885 82.74002218 153.20703125 77.5703125 C155.94119633 75.17568426 158.46260146 72.6008335 161 70 C178.97880837 77.19152335 193.05025528 111.51724517 200.22021484 127.76513672 C211.23588737 153.96111667 216.21795935 181.14777056 216.25 209.5 C216.25133942 210.20487549 216.25267883 210.90975098 216.25405884 211.63598633 C216.24967921 222.30053655 215.59023177 232.55496824 213.39697266 243.01171875 C213.01739594 244.91287053 212.73093902 246.83190452 212.44921875 248.75 C205.09569072 296.77304019 175.19194273 343.43204434 137 373 C136.44715332 373.42925781 135.89430664 373.85851562 135.32470703 374.30078125 C108.74985448 394.78725464 78.00279676 408.70401191 45 415 C44.26974609 415.14808105 43.53949219 415.29616211 42.78710938 415.44873047 C0.99297863 423.68171339 -45.02714065 416.82666787 -83 398 C-83.77150391 397.62504395 -84.54300781 397.25008789 -85.33789062 396.86376953 C-121.98147211 378.93768169 -153.90703846 349.60548967 -174 314 C-174.38897461 313.31631348 -174.77794922 312.63262695 -175.17871094 311.92822266 C-188.55137288 288.18417927 -197.58906464 262.07781989 -201 235 C-201.0942627 234.27901123 -201.18852539 233.55802246 -201.28564453 232.81518555 C-202.199355 224.96038111 -202.24239317 217.08529297 -202.25 209.1875 C-202.25100708 208.45900848 -202.25201416 207.73051697 -202.25305176 206.97994995 C-202.24167606 194.76529024 -201.37382862 182.99448534 -199 171 C-198.86078125 170.24831543 -198.7215625 169.49663086 -198.578125 168.72216797 C-192.34344484 135.36229946 -177.40413699 104.24593384 -156 78 C-155.56042969 77.45746582 -155.12085938 76.91493164 -154.66796875 76.35595703 C-134.60653939 51.72000145 -109.77908305 32.93866471 -81.25 19.1875 C-80.30382812 18.73117188 -79.35765625 18.27484375 -78.3828125 17.8046875 C-69.10838392 13.42581384 -59.68524201 9.97584738 -49.75 7.4375 C-48.93354004 7.22697998 -48.11708008 7.01645996 -47.27587891 6.79956055 C-36.96064259 4.1799937 -26.63260209 2.09998786 -16.0625 0.8125 C-15.37655762 0.72846924 -14.69061523 0.64443848 -13.98388672 0.55786133 C-9.24086167 0.02529297 -4.8318568 0 0 0 Z " fill="#77C9A6" transform="translate(249,47)"/>
<path d="M0 0 C0.97485352 0.19867676 1.94970703 0.39735352 2.95410156 0.60205078 C50.99902273 10.65218706 95.19347595 32.24879574 130.49975586 66.59692383 C132.56359956 68.52709628 134.79256034 70.23782168 137 72 C138.09809154 73.15466769 139.1624861 74.34249631 140.1875 75.5625 C142.1512211 77.87251171 144.12644722 80.13313755 146.21484375 82.33203125 C158.83899451 95.65184023 168.89858599 111.12108226 178 127 C178.42909668 127.74830078 178.85819336 128.49660156 179.30029297 129.26757812 C192.33570917 152.30783667 201.01067422 177.53589856 206.3125 203.4375 C206.45985596 204.15639404 206.60721191 204.87528809 206.7590332 205.6159668 C209.73289088 221.26225609 210.37300362 236.73568046 210.3125 252.625 C210.31034485 253.64290619 210.3081897 254.66081238 210.30596924 255.70956421 C210.25629854 270.31863523 210.00540191 284.65075853 207 299 C206.70198486 300.46228027 206.70198486 300.46228027 206.39794922 301.95410156 C196.54575995 349.05273222 175.55979251 392.15735483 142.5078125 427.28125 C140.73497467 429.20320503 139.06056591 431.11677239 137.41015625 433.13671875 C135.46130074 435.45197173 133.61689028 437.37801185 131.3125 439.3125 C128.30318744 441.86957821 125.39008138 444.49656708 122.5 447.1875 C89.24247051 477.05347016 47.13017529 496.39458716 3.5625 505.3125 C2.84360596 505.45985596 2.12471191 505.60721191 1.3840332 505.7590332 C-13.29160498 508.54840125 -27.81668838 509.34892619 -42.72729492 509.31567383 C-45.66688487 509.3125221 -48.6054558 509.33604926 -51.54492188 509.36132812 C-64.91806192 509.40598737 -77.81416711 508.20051542 -91 506 C-92.70555054 505.71781616 -92.70555054 505.71781616 -94.44555664 505.42993164 C-97.0412622 504.96367402 -99.61274939 504.4449418 -102.1875 503.875 C-103.57642456 503.56804199 -103.57642456 503.56804199 -104.9934082 503.25488281 C-138.16852023 495.54089209 -169.5454776 481.10858262 -197 461 C-197.57298828 460.58395508 -198.14597656 460.16791016 -198.73632812 459.73925781 C-206.29793619 454.2148153 -213.23654952 448.19792517 -220.02734375 441.76171875 C-222.01731577 439.88131657 -224.05585344 438.10349377 -226.17578125 436.37109375 C-228.45888878 434.45429393 -230.34823289 432.64711124 -232.25 430.375 C-234.19125892 428.08617944 -236.14372424 425.84865787 -238.2109375 423.671875 C-277.00743117 382.7409464 -301.92116325 322.2525356 -302.203125 265.76953125 C-302.21371445 264.35219948 -302.21371445 264.35219948 -302.22451782 262.90623474 C-302.45045553 223.80275741 -302.45045553 223.80275741 -299 207 C-298.80132324 205.98744141 -298.60264648 204.97488281 -298.39794922 203.93164062 C-288.82160799 156.04276119 -266.52743333 111.57651097 -232.40307617 76.50024414 C-230.47290372 74.43640044 -228.76217832 72.20743966 -227 70 C-225.84533231 68.90190846 -224.65750369 67.8375139 -223.4375 66.8125 C-220.1827826 64.04240045 -217.05312287 61.17553278 -213.9375 58.25 C-180.49974776 27.81425591 -136.07440676 8.23304644 -92 0 C-91.19498047 -0.16226074 -90.38996094 -0.32452148 -89.56054688 -0.49169922 C-61.56934616 -5.96455505 -27.91127604 -5.8459259 0 0 Z M-185 77 C-185.99644531 77.79277344 -186.99289063 78.58554688 -188.01953125 79.40234375 C-202.27663983 90.98014505 -215.22751968 104.11865747 -226 119 C-226.76441406 120.04285156 -227.52882812 121.08570312 -228.31640625 122.16015625 C-263.60341413 171.6847047 -276.79720459 231.73346348 -267.12109375 291.6015625 C-266.75324568 293.73539171 -266.38014269 295.86832675 -266 298 C-265.85578613 298.8259668 -265.71157227 299.65193359 -265.56298828 300.50292969 C-259.51122072 333.67395139 -242.96960966 365.85180847 -222 392 C-221.20722656 392.99644531 -220.41445312 393.99289062 -219.59765625 395.01953125 C-208.00652342 409.2930565 -194.85419341 422.16495867 -180 433 C-179.13117188 433.64066406 -178.26234375 434.28132813 -177.3671875 434.94140625 C-129.25705445 469.51573016 -69.87546426 483.73450081 -11.375 474.75 C-10.70038727 474.64767059 -10.02577454 474.54534119 -9.33071899 474.43991089 C27.94068488 468.65168088 63.62937386 452.55384941 93 429 C93.99644531 428.20722656 94.99289062 427.41445313 96.01953125 426.59765625 C110.2930565 415.00652342 123.16495867 401.85419341 134 387 C134.64066406 386.13117188 135.28132813 385.26234375 135.94140625 384.3671875 C147.82651362 367.82907389 156.92729191 350.27335214 164.12890625 331.28320312 C164.87742418 329.32128058 165.65469778 327.37037182 166.4375 325.421875 C186.41755764 273.72347585 181.16705713 211.96987716 159.39453125 161.84375 C144.44684002 128.91585739 121.00012146 97.86163002 92 76 C91.47615723 75.60506348 90.95231445 75.21012695 90.41259766 74.80322266 C51.35869136 45.5896707 4.48922512 28.72897385 -44.375 28.8125 C-45.08308807 28.81343658 -45.79117615 28.81437317 -46.52072144 28.81533813 C-96.96139654 28.95957006 -145.48995217 45.3148152 -185 77 Z " fill="#FBC063" transform="translate(302,3)"/>
<path d="M0 0 C0 12.54 0 25.08 0 38 C-3.403125 38.515625 -6.80625 39.03125 -10.3125 39.5625 C-40.650035 44.63241945 -69.11352939 60.56963643 -87.34472656 85.73242188 C-106.99188431 113.94022444 -114.36819788 146.3110992 -109 180.4375 C-101.8931697 211.56741862 -83.70517987 239.4368435 -56.81640625 256.859375 C-45.07856498 264.23023447 -32.30623974 270.15697462 -18.6484375 272.8671875 C-15 274 -15 274 -13.44140625 276.171875 C-13.00634766 277.44804688 -13.00634766 277.44804688 -12.5625 278.75 C-9.78983048 285.3113515 -5.17660649 287.91169676 1 291 C8.42090169 291.74528424 14.75186239 291.68904601 21.12890625 287.55859375 C24.86519327 284.44632127 27.35489859 280.99448786 28.8515625 276.3671875 C30 274 30 274 31.93359375 273.1015625 C32.75988281 272.94429688 33.58617187 272.78703125 34.4375 272.625 C64.465293 265.5712271 91.11833575 247.97023443 107.859375 221.86816406 C124.70484259 194.2779419 130.90812544 162.1204312 124.10546875 130.234375 C120.07300401 113.82668115 112.96384086 98.75040112 102.69921875 85.33984375 C101.19525015 83.2688617 100.10632066 81.29453503 99 79 C101.662342 76.30818725 104.33066667 73.62237853 107 70.9375 C108.11568359 69.80924805 108.11568359 69.80924805 109.25390625 68.65820312 C120.58848578 57.27434281 120.58848578 57.27434281 127 53 C143.00079777 72.41031355 154.71186808 93.54339205 161 118 C161.29519531 119.0209375 161.59039062 120.041875 161.89453125 121.09375 C163.80983673 127.96243173 164.62989727 134.75938569 165.09057617 141.85913086 C165.38532054 145.38566057 165.70998357 147.61893891 167.87890625 150.46875 C170.01369245 152.17061599 170.01369245 152.17061599 173 153 C173.00410889 153.58491211 173.00821777 154.16982422 173.01245117 154.77246094 C173.04542661 157.43265566 173.11606907 160.09057155 173.1875 162.75 C173.19330078 163.67039062 173.19910156 164.59078125 173.20507812 165.5390625 C173.28924163 168.12007668 173.41682801 170.48295987 174 173 C176.44461761 175.30127191 176.44461761 175.30127191 179 177 C180.54526363 185.90559826 176.55097893 196.29643329 174.15625 204.8125 C173.77054103 206.20825259 173.38508842 207.60407607 173 209 C172.73574219 209.94875 172.47148437 210.8975 172.19921875 211.875 C171.7239039 214.34681527 171.7239039 214.34681527 174.3125 217 C174.7765625 217.51046875 175.240625 218.0209375 175.71875 218.546875 C179.25737101 222.56018907 179.49033013 227.15920108 179.3828125 232.3046875 C178.39820713 239.23711304 174.51103078 245.74147622 169 250 C162.71121405 253.78827464 157.25785559 254.54547558 150 254 C149.72285156 254.58523438 149.44570313 255.17046875 149.16015625 255.7734375 C145.18474469 263.40301525 138.8394013 269.78219861 133 276 C132.51031738 276.52899902 132.02063477 277.05799805 131.51611328 277.60302734 C108.88635754 301.88879002 78.38869472 318.78923279 46 326 C45.12730469 326.22300781 44.25460937 326.44601562 43.35546875 326.67578125 C36.46223782 328.31278439 29.02047589 329.04334528 22 328 C21.41476562 327.34773438 20.82953125 326.69546875 20.2265625 326.0234375 C16.61848822 322.74452087 12.4591449 323.32254985 7.75 323.25 C6.81414062 323.22035156 5.87828125 323.19070313 4.9140625 323.16015625 C2.60928908 323.08960196 0.30551832 323.03683748 -2 323 C-2.3403125 321.6078125 -2.3403125 321.6078125 -2.6875 320.1875 C-4.25584205 316.37866931 -5.25327943 315.58393665 -9 314 C-12.09233868 313.42559743 -12.09233868 313.42559743 -15.5 313.1875 C-44.70711837 309.99331603 -72.9226678 295.9985441 -95 277 C-95.51030762 276.56268555 -96.02061523 276.12537109 -96.54638672 275.67480469 C-102.52060392 270.50885258 -108.03679274 265.14183382 -113 259 C-113.74636719 258.1028125 -114.49273437 257.205625 -115.26171875 256.28125 C-129.26636418 238.86888079 -138.70538444 219.10394707 -144.875 197.6875 C-145.06626465 197.03193115 -145.2575293 196.3763623 -145.45458984 195.70092773 C-148.67262511 183.71878823 -149.33315814 171.49900985 -149.26074219 159.16601562 C-149.25000505 157.00101749 -149.26072537 154.83684861 -149.2734375 152.671875 C-149.28843721 139.67890518 -148.04099807 127.07092973 -144.3125 114.5625 C-144.05194824 113.6741748 -143.79139648 112.78584961 -143.52294922 111.87060547 C-141.0128258 103.58734698 -137.82519375 95.75636515 -134 88 C-133.68272949 87.35305176 -133.36545898 86.70610352 -133.03857422 86.03955078 C-128.76182833 77.42852431 -123.95902756 69.57696621 -118 62 C-117.33613281 61.13246094 -116.67226562 60.26492187 -115.98828125 59.37109375 C-101.4377878 40.89384976 -83.87866105 26.71143337 -63 16 C-62.37770508 15.67660645 -61.75541016 15.35321289 -61.11425781 15.02001953 C-51.41226673 10.03632974 -41.5291705 6.77000599 -31 4 C-29.85789062 3.690625 -28.71578125 3.38125 -27.5390625 3.0625 C-17.98801268 0.56046176 -10.07464009 0 0 0 Z " fill="#57BD92" transform="translate(248,99)"/>
<path d="M0 0 C0.97485352 0.19867676 1.94970703 0.39735352 2.95410156 0.60205078 C50.99902273 10.65218706 95.19347595 32.24879574 130.49975586 66.59692383 C132.56359956 68.52709628 134.79256034 70.23782168 137 72 C138.09809154 73.15466769 139.1624861 74.34249631 140.1875 75.5625 C142.1512211 77.87251171 144.12644722 80.13313755 146.21484375 82.33203125 C158.83899451 95.65184023 168.89858599 111.12108226 178 127 C178.42909668 127.74830078 178.85819336 128.49660156 179.30029297 129.26757812 C192.33570917 152.30783667 201.01067422 177.53589856 206.3125 203.4375 C206.45985596 204.15639404 206.60721191 204.87528809 206.7590332 205.6159668 C209.73289088 221.26225609 210.37300362 236.73568046 210.3125 252.625 C210.31034485 253.64290619 210.3081897 254.66081238 210.30596924 255.70956421 C210.25629854 270.31863523 210.00540191 284.65075853 207 299 C206.70198486 300.46228027 206.70198486 300.46228027 206.39794922 301.95410156 C196.54575995 349.05273222 175.55979251 392.15735483 142.5078125 427.28125 C140.73497467 429.20320503 139.06056591 431.11677239 137.41015625 433.13671875 C135.46130074 435.45197173 133.61689028 437.37801185 131.3125 439.3125 C128.30318744 441.86957821 125.39008138 444.49656708 122.5 447.1875 C89.24247051 477.05347016 47.13017529 496.39458716 3.5625 505.3125 C2.84360596 505.45985596 2.12471191 505.60721191 1.3840332 505.7590332 C-13.29160498 508.54840125 -27.81668838 509.34892619 -42.72729492 509.31567383 C-45.66688487 509.3125221 -48.6054558 509.33604926 -51.54492188 509.36132812 C-64.91806192 509.40598737 -77.81416711 508.20051542 -91 506 C-92.70555054 505.71781616 -92.70555054 505.71781616 -94.44555664 505.42993164 C-97.0412622 504.96367402 -99.61274939 504.4449418 -102.1875 503.875 C-103.57642456 503.56804199 -103.57642456 503.56804199 -104.9934082 503.25488281 C-138.16852023 495.54089209 -169.5454776 481.10858262 -197 461 C-197.57298828 460.58395508 -198.14597656 460.16791016 -198.73632812 459.73925781 C-206.29793619 454.2148153 -213.23654952 448.19792517 -220.02734375 441.76171875 C-222.01731577 439.88131657 -224.05585344 438.10349377 -226.17578125 436.37109375 C-228.45888878 434.45429393 -230.34823289 432.64711124 -232.25 430.375 C-234.19125892 428.08617944 -236.14372424 425.84865787 -238.2109375 423.671875 C-277.00743117 382.7409464 -301.92116325 322.2525356 -302.203125 265.76953125 C-302.21371445 264.35219948 -302.21371445 264.35219948 -302.22451782 262.90623474 C-302.45045553 223.80275741 -302.45045553 223.80275741 -299 207 C-298.80132324 205.98744141 -298.60264648 204.97488281 -298.39794922 203.93164062 C-288.82160799 156.04276119 -266.52743333 111.57651097 -232.40307617 76.50024414 C-230.47290372 74.43640044 -228.76217832 72.20743966 -227 70 C-225.84533231 68.90190846 -224.65750369 67.8375139 -223.4375 66.8125 C-220.1827826 64.04240045 -217.05312287 61.17553278 -213.9375 58.25 C-180.49974776 27.81425591 -136.07440676 8.23304644 -92 0 C-91.19498047 -0.16226074 -90.38996094 -0.32452148 -89.56054688 -0.49169922 C-61.56934616 -5.96455505 -27.91127604 -5.8459259 0 0 Z M-215 81 C-215.50176758 81.47308594 -216.00353516 81.94617188 -216.52050781 82.43359375 C-224.51761632 90.02441829 -231.43035468 98.15381708 -238 107 C-238.43054688 107.57508301 -238.86109375 108.15016602 -239.3046875 108.74267578 C-245.81591087 117.48103351 -251.58920452 126.54547838 -257 136 C-257.65613281 137.12277344 -258.31226563 138.24554688 -258.98828125 139.40234375 C-268.20127635 155.8158761 -275.02256329 173.72516874 -279.49414062 191.99267578 C-279.98022513 193.92153041 -280.52797597 195.83452519 -281.078125 197.74609375 C-296.9305264 254.58996594 -284.99450116 320.85586077 -256.34692383 371.71264648 C-240.91433523 398.23326476 -220.34354173 423.22524232 -196 442 C-195.18088135 442.63373535 -195.18088135 442.63373535 -194.34521484 443.28027344 C-184.35389605 450.95813783 -173.88466721 457.66373841 -163 464 C-162.38753418 464.3619043 -161.77506836 464.72380859 -161.14404297 465.09667969 C-143.81504013 475.25020252 -124.49441204 482.34756718 -105 487 C-104.2889209 487.17724609 -103.5778418 487.35449219 -102.84521484 487.53710938 C-97.59074854 488.84277178 -92.31768535 489.98262757 -87 491 C-86.20770996 491.15243164 -85.41541992 491.30486328 -84.59912109 491.46191406 C-53.03213252 497.25827167 -17.88052001 495.49460164 13 487 C14.42699219 486.61183105 14.42699219 486.61183105 15.8828125 486.21582031 C56.82179919 474.86525539 92.43483041 454.39595685 123 425 C123.73694092 424.29593018 123.73694092 424.29593018 124.48876953 423.57763672 C164.59325108 385.09081493 186.90768916 332.45153337 194 278 C194.09788818 277.24968506 194.19577637 276.49937012 194.29663086 275.72631836 C195.20348153 267.86174826 195.28567138 259.97034713 195.3125 252.0625 C195.31511841 251.32 195.31773682 250.5775 195.32043457 249.8125 C195.32588088 235.27241369 193.74252438 221.28806227 191 207 C190.77570313 205.75790771 190.77570313 205.75790771 190.546875 204.49072266 C179.19805152 142.21668086 139.41246538 88.24270714 88.23388672 52.52197266 C83.22687082 49.11063527 78.06443819 45.99378354 72.79150391 43.01318359 C71.03385012 42.01914391 69.28824571 41.00389439 67.54296875 39.98828125 C34.09102413 20.96074061 -6.64618767 11.48456978 -45 11.6875 C-46.14001968 11.69123123 -46.14001968 11.69123123 -47.30307007 11.69503784 C-111.17682169 12.01598633 -168.98226938 37.37625537 -215 81 Z " fill="#020100" transform="translate(302,3)"/>
<path d="M0 0 C0 12.54 0 25.08 0 38 C-5.28 39.32 -10.56 40.64 -16 42 C-34.88152907 50.92581374 -47.31547205 63.60302944 -55 83 C-60.7693572 101.19566503 -58.54734222 119.26773347 -50.04589844 136.08544922 C-41.07834699 152.50084101 -26.22017153 162.86532836 -8.62109375 168.30859375 C8.82285012 172.91005137 26.37324767 169.44437071 42 161 C46.71384042 158.02546145 51.24712021 154.96073115 54.9765625 150.7890625 C57.51265315 148.54672752 58.78748777 148.56736518 62.125 148.5625 C69.36158553 148.14593617 75.28234285 145.71765715 80.4375 140.5625 C80.953125 139.716875 81.46875 138.87125 82 138 C82.5775 137.175 83.155 136.35 83.75 135.5 C86.02591437 129.12743976 86.37557751 122.37439401 83.79296875 116.0390625 C81.08813327 111.21706837 81.08813327 111.21706837 76.88671875 107.81640625 C73.7277993 104.77521051 73.99505801 100.77753324 73.5625 96.5625 C72.20947191 85.87653394 69.00951652 77.59389147 63.83203125 68.16015625 C63.29940674 67.18828369 62.76678223 66.21641113 62.21801758 65.21508789 C61.81607178 64.48410889 61.41412598 63.75312988 61 63 C64.47117175 59.40540037 67.95832899 55.82741103 71.46142578 52.26391602 C72.65120615 51.04896284 73.83646417 49.82956402 75.01708984 48.60571289 C76.71328133 46.848994 78.42500275 45.1088148 80.140625 43.37109375 C80.66682434 42.81908798 81.19302368 42.26708221 81.73516846 41.698349 C83.25097656 40.18139648 83.25097656 40.18139648 86 38 C88.99886204 38.06599122 89.7090442 38.70717511 91.82421875 40.8359375 C105.63535957 59.65615036 112.15164823 80.38939361 112.25 103.625 C112.2809375 105.41744141 112.2809375 105.41744141 112.3125 107.24609375 C112.34856047 115.56704727 111.23001574 122.99252811 109 131 C108.80647949 131.71978027 108.61295898 132.43956055 108.41357422 133.18115234 C103.9045725 149.18535129 95.81053913 162.48517186 85 175 C84.35546875 175.74765625 83.7109375 176.4953125 83.046875 177.265625 C70.32861087 190.86863794 49.16691274 204.46693069 30.28125 206.2578125 C29.5284375 206.17273438 28.775625 206.08765625 28 206 C27.06276017 204.59414026 26.13356033 203.18170093 25.26171875 201.734375 C22.58212992 198.05097736 19.16776115 195.75516425 15 194 C6.16924067 192.68659807 -0.43658413 193.88858009 -7.75 198.875 C-10.07805053 201.07371439 -11.51097485 203.17868919 -13 206 C-34.64960028 203.95174299 -57.05886721 189.40633309 -71 173 C-86.71170073 153.25900828 -96.46889321 130.59331862 -96.25 105.125 C-96.24250732 103.97604248 -96.23501465 102.82708496 -96.22729492 101.64331055 C-95.86696076 73.30977249 -84.62038178 49.22907262 -65.25 28.8125 C-48.0471812 12.32979919 -24.15828181 0 0 0 Z " fill="#1EB37F" transform="translate(248,152)"/>
<path d="M0 0 C22.11906109 0 22.11906109 0 29.0625 1.5 C30.33468384 1.76067261 30.33468384 1.76067261 31.63256836 2.02661133 C72.18459964 10.80162539 106.242302 29.59127771 137 57 C133.72697235 61.04821841 130.38726133 64.62828907 126.46875 68.05859375 C120.71072337 73.19349147 115.28891355 78.63237951 109.875 84.125 C99.50134601 94.6483254 99.50134601 94.6483254 95.0703125 98.4296875 C89.39743086 103.28371355 84.24142221 108.69063342 79 114 C73.1656466 119.90998391 67.36925168 125.78086065 61.046875 131.17578125 C56.49475988 135.23272355 52.27980461 139.65909688 48 144 C37.49335691 154.65663595 37.49335691 154.65663595 33.0390625 158.45703125 C29.66540984 161.34173629 26.51756576 164.41943413 23.3984375 167.57421875 C22.90837219 168.06979279 22.41830688 168.56536682 21.91339111 169.07595825 C19.88487202 171.13209956 17.86009425 173.19183675 15.83984375 175.25610352 C14.34303036 176.78330299 12.83989878 178.30406241 11.3359375 179.82421875 C10.45470215 180.72229248 9.5734668 181.62036621 8.66552734 182.5456543 C6 185 6 185 0 189 C0 126.63 0 64.26 0 0 Z " fill="#FE626D" transform="translate(264,48)"/>
<path d="M0 0 C-0.95132813 0.38478516 -0.95132813 0.38478516 -1.921875 0.77734375 C-33.42986854 13.70258419 -60.13356963 29.56548486 -85 53 C-85.7321875 53.68964844 -86.464375 54.37929687 -87.21875 55.08984375 C-120.71921111 87.59326733 -145.94224618 139.91441823 -147.17700195 186.73413086 C-147.2032506 188.47762389 -147.223381 190.2212168 -147.23828125 191.96484375 C-147.24798447 192.90763687 -147.25768768 193.85042999 -147.26768494 194.8217926 C-147.29254389 197.86040527 -147.30520118 200.8987959 -147.3125 203.9375 C-147.31511841 204.97100586 -147.31773682 206.00451172 -147.32043457 207.06933594 C-147.32469304 222.72589995 -146.69115444 237.71227797 -143 253 C-142.69964844 254.27359375 -142.39929688 255.5471875 -142.08984375 256.859375 C-141.17705105 260.28926272 -140.11565165 263.63080614 -139 267 C-138.51272517 268.58935478 -138.02718633 270.17924237 -137.54296875 271.76953125 C-129.92862628 296.25059438 -118.09144015 319.00260343 -102 339 C-101.19433594 340.00933594 -100.38867188 341.01867187 -99.55859375 342.05859375 C-88.23309658 355.97670047 -75.46893026 368.39422047 -61 379 C-60.15308594 379.63035156 -59.30617188 380.26070313 -58.43359375 380.91015625 C-43.13303534 391.97596373 -26.23299776 400.4057976 -9 408 C-12.41926749 409.15938404 -14.56387929 408.8277643 -18.0078125 407.84765625 C-18.98532471 407.57010498 -19.96283691 407.29255371 -20.9699707 407.0065918 C-22.01113037 406.6950415 -23.05229004 406.38349121 -24.125 406.0625 C-25.20160889 405.7425708 -26.27821777 405.4226416 -27.38745117 405.09301758 C-36.99954755 402.14922832 -46.00421675 398.460044 -55 394 C-55.77150391 393.62504395 -56.54300781 393.25008789 -57.33789062 392.86376953 C-93.98147211 374.93768169 -125.90703846 345.60548967 -146 310 C-146.38897461 309.31631348 -146.77794922 308.63262695 -147.17871094 307.92822266 C-160.55137288 284.18417927 -169.58906464 258.07781989 -173 231 C-173.0942627 230.27901123 -173.18852539 229.55802246 -173.28564453 228.81518555 C-174.199355 220.96038111 -174.24239317 213.08529297 -174.25 205.1875 C-174.25100708 204.45900848 -174.25201416 203.73051697 -174.25305176 202.97994995 C-174.24167606 190.76529024 -173.37382862 178.99448534 -171 167 C-170.86078125 166.24831543 -170.7215625 165.49663086 -170.578125 164.72216797 C-164.34344484 131.36229946 -149.40413699 100.24593384 -128 74 C-127.56042969 73.45746582 -127.12085938 72.91493164 -126.66796875 72.35595703 C-106.60653939 47.72000145 -81.77908305 28.93866471 -53.25 15.1875 C-52.30382812 14.73117188 -51.35765625 14.27484375 -50.3828125 13.8046875 C-40.95662761 9.35416288 -31.41650302 5.91983589 -21.3125 3.375 C-20.52294922 3.17132813 -19.73339844 2.96765625 -18.91992188 2.7578125 C-17.36414889 2.35764665 -15.80704287 1.96262121 -14.24853516 1.57324219 C-12.75358176 1.19211835 -11.26339594 0.79176241 -9.77880859 0.37207031 C-6.09195409 -0.64622816 -3.65021638 -1.13235721 0 0 Z " fill="#57BD91" transform="translate(221,51)"/>
<path d="M0 0 C-0.64324219 0.23074219 -1.28648437 0.46148438 -1.94921875 0.69921875 C-14.31237383 5.16124191 -26.46542221 9.67454319 -38.03857422 15.93896484 C-40.14294433 17.07732587 -42.26078206 18.1882452 -44.37890625 19.30078125 C-61.59180038 28.47284509 -97.54575328 47.63725984 -104 67 C-105.35546875 68.33203125 -105.35546875 68.33203125 -107.1875 69.8125 C-118.43806784 79.40975859 -128.27560582 90.07803955 -137 102 C-138.15242188 103.57007812 -138.15242188 103.57007812 -139.328125 105.171875 C-174.58386858 154.72715094 -187.8002513 214.71461287 -178.12109375 274.6015625 C-177.75324568 276.73539171 -177.38014269 278.86832675 -177 281 C-176.85578613 281.8259668 -176.71157227 282.65193359 -176.56298828 283.50292969 C-169.25084335 323.5823471 -146.51500585 365.76619462 -116.4375 393.4375 C-115 395 -115 395 -113.5859375 397.41015625 C-111.87442139 400.20507049 -109.98833457 402.17499028 -107.625 404.4375 C-105.08363965 406.91338246 -102.62962511 409.33434243 -100.4375 412.125 C-97.27795096 415.85164759 -93.72178953 418.84892534 -90 422 C-89.09636719 422.80308594 -88.19273438 423.60617187 -87.26171875 424.43359375 C-64.03540897 444.91001754 -35.52217353 461.57275131 -6 471 C-9.45664185 472.17853781 -11.66614583 471.80868583 -15.15625 470.84765625 C-16.16880859 470.56994385 -17.18136719 470.29223145 -18.22460938 470.00610352 C-19.30548828 469.69471436 -20.38636719 469.3833252 -21.5 469.0625 C-22.61697266 468.744021 -23.73394531 468.42554199 -24.88476562 468.09741211 C-35.22766431 465.06894655 -45.13773882 461.32658788 -55 457 C-55.7312207 456.68450195 -56.46244141 456.36900391 -57.21582031 456.04394531 C-115.09618996 430.87289677 -159.60418396 381.05934934 -183.0546875 323.09765625 C-205.89368409 264.54284096 -204.54225372 198.72549786 -180 141 C-179.49412354 139.80866455 -179.49412354 139.80866455 -178.97802734 138.59326172 C-163.72975215 103.34202846 -138.41503928 70.50054114 -108 47 C-107.11441406 46.29746094 -106.22882813 45.59492187 -105.31640625 44.87109375 C-79.86191283 25.13591785 -50.31212657 10.08188196 -18.96191406 2.47607422 C-17.0192957 2.00468226 -15.08375724 1.50441998 -13.1484375 1.00390625 C-4.25730461 -1.21394841 -4.25730461 -1.21394841 0 0 Z " fill="#FBA60F" transform="translate(214,20)"/>
<path d="M0 0 C-3.92314762 1.99215514 -7.83527987 3.95621265 -11.8671875 5.71875 C-51.71136396 23.28600486 -82.31187344 56.5974198 -98 97 C-113.51420656 137.30226845 -111.54126031 182.85902225 -94.79296875 222.390625 C-84.00750339 246.49373356 -67.16783289 269.08841711 -46 285 C-45.21568604 285.59675537 -45.21568604 285.59675537 -44.41552734 286.20556641 C-32.20814691 295.44309698 -19.11707636 303.04809704 -5 309 C-8.19474457 310.03764798 -10.17035295 309.93985521 -13.38671875 309.03125 C-14.65733154 308.6751062 -14.65733154 308.6751062 -15.95361328 308.31176758 C-16.8557959 308.04388428 -17.75797852 307.77600098 -18.6875 307.5 C-19.62577637 307.22373779 -20.56405273 306.94747559 -21.53076172 306.6628418 C-43.25179725 300.10085692 -62.76343026 289.8328488 -80 275 C-80.51030762 274.56268555 -81.02061523 274.12537109 -81.54638672 273.67480469 C-87.52060392 268.50885258 -93.03679274 263.14183382 -98 257 C-98.74636719 256.1028125 -99.49273437 255.205625 -100.26171875 254.28125 C-114.26636418 236.86888079 -123.70538444 217.10394707 -129.875 195.6875 C-130.06626465 195.03193115 -130.2575293 194.3763623 -130.45458984 193.70092773 C-133.67262511 181.71878823 -134.33315814 169.49900985 -134.26074219 157.16601562 C-134.25000505 155.00101749 -134.26072537 152.83684861 -134.2734375 150.671875 C-134.28843721 137.67890518 -133.04099807 125.07092973 -129.3125 112.5625 C-129.05194824 111.6741748 -128.79139648 110.78584961 -128.52294922 109.87060547 C-126.0128258 101.58734698 -122.82519375 93.75636515 -119 86 C-118.68272949 85.35305176 -118.36545898 84.70610352 -118.03857422 84.03955078 C-113.76182833 75.42852431 -108.95902756 67.57696621 -103 60 C-102.33613281 59.13246094 -101.67226562 58.26492187 -100.98828125 57.37109375 C-86.4377878 38.89384976 -68.87866105 24.71143337 -48 14 C-47.37770508 13.67660645 -46.75541016 13.35321289 -46.11425781 13.02001953 C-37.03737852 8.3574353 -27.83277491 5.13411413 -17.97753906 2.52441406 C-16.11341125 2.03007498 -14.25565503 1.51188612 -12.3984375 0.9921875 C-4.25748222 -1.20646466 -4.25748222 -1.20646466 0 0 Z " fill="#1FB37F" transform="translate(233,101)"/>
<path d="M0 0 C0.00142502 0.55266037 0.00285004 1.10532074 0.00431824 1.67472839 C0.02402587 7.43412722 0.07832141 13.1924677 0.15258789 18.95141602 C0.17576522 21.09977624 0.19016297 23.24825004 0.19555664 25.39672852 C0.20484791 28.48786173 0.24584351 31.57720912 0.29296875 34.66796875 C0.2890361 35.62648239 0.28510345 36.58499603 0.28105164 37.57255554 C0.38254685 42.22569875 0.4686166 44.32275296 3.41918945 48.08325195 C7.51708316 51.12672594 9.86744566 51.34796979 15 51 C19.7026675 48.70875144 23.24634332 45.19153279 27 41.625 C27.9748938 40.70920166 27.9748938 40.70920166 28.96948242 39.77490234 C34.0872831 34.9398016 39.07705281 29.98201577 43.96289062 24.91259766 C45.27261348 23.57226988 46.63198965 22.28078108 48 21 C48.66 21 49.32 21 50 21 C55.14456902 30.5463393 59.17552212 38.90310142 59 50 C58.41992188 50.15855469 57.83984375 50.31710938 57.2421875 50.48046875 C50.4582973 52.50668018 45.43322079 55.22757899 41.625 61.4375 C38.7216723 67.86629704 38.66262592 76.04552318 40.90625 82.6796875 C42.05539901 85.08417311 42.05539901 85.08417311 44 88 C30.78965385 99.27549747 17.36588179 104.34229038 0 103 C-13.70469675 100.65481125 -26.34826231 93.56240585 -34.69897461 82.35571289 C-43.30857293 70.14284486 -46.88758999 56.77142731 -44.50390625 41.90625 C-40.96531226 26.39241418 -32.7503467 14.48452371 -19.32421875 5.91796875 C-13.04360441 2.29425354 -7.27875291 -0.10824269 0 0 Z " fill="#00A76B" transform="translate(249,205)"/>
<path d="M0 0 C23.13868613 0 23.13868613 0 30 2 C31.79268523 3.79268523 31.2204042 6.48606932 31.28848267 8.91235352 C31.32598633 10.19862137 31.36348999 11.48488922 31.40213013 12.81013489 C31.43847122 14.2497178 31.47450189 15.68930858 31.51025391 17.12890625 C31.55087661 18.63527153 31.59158918 20.1416344 31.63238525 21.647995 C31.99482187 35.49576863 32.20690943 49.3462752 32.37743568 63.19760132 C32.49472974 72.49853658 32.65831856 81.7937979 32.94091797 91.09130859 C33.18766216 99.21107719 33.34275652 107.32683796 33.3928827 115.450284 C33.42230105 119.74219289 33.49310557 124.02312873 33.67381668 128.31155396 C34.30263763 143.85793064 34.78452589 157.40559006 23.85164344 169.49415207 C16.63767621 176.98702016 8.64997851 183.23334766 0 189 C0 126.63 0 64.26 0 0 Z " fill="#FE4553" transform="translate(264,48)"/>
<path d="M0 0 C-1.63526756 3.27053512 -5.181757 4.12669886 -8.375 5.625 C-19.64131906 11.09810528 -29.00265923 18.29621031 -38 27 C-39.10794922 28.06927734 -39.10794922 28.06927734 -40.23828125 29.16015625 C-56.85021935 46.36221648 -68.29432992 72.03662033 -69 96 C-69.02578125 96.70753418 -69.0515625 97.41506836 -69.078125 98.14404297 C-70.0597692 128.09032647 -61.5605197 156.58539157 -41 179 C-40.56349121 179.4842041 -40.12698242 179.9684082 -39.67724609 180.46728516 C-32.90628287 187.90698549 -25.66881806 193.60473287 -17.15234375 198.94140625 C-14.73638291 200.5191155 -12.87580052 201.84935691 -11 204 C-11.33 204.66 -11.66 205.32 -12 206 C-33.64960028 203.95174299 -56.05886721 189.40633309 -70 173 C-85.71170073 153.25900828 -95.46889321 130.59331862 -95.25 105.125 C-95.24250732 103.97604248 -95.23501465 102.82708496 -95.22729492 101.64331055 C-94.86696076 73.30977249 -83.62038178 49.22907262 -64.25 28.8125 C-47.84405249 13.09331308 -23.32837839 -0.70692056 0 0 Z " fill="#00A76B" transform="translate(247,152)"/>
<path d="M0 0 C2.6875 1.6796875 2.6875 1.6796875 5 4 C6.54526363 12.90559826 2.55097893 23.29643329 0.15625 31.8125 C-0.22945897 33.20825259 -0.61491158 34.60407607 -1 36 C-1.26425781 36.94875 -1.52851563 37.8975 -1.80078125 38.875 C-2.2760961 41.34681527 -2.2760961 41.34681527 0.3125 44 C0.7765625 44.51046875 1.240625 45.0209375 1.71875 45.546875 C5.25737101 49.56018907 5.49033013 54.15920108 5.3828125 59.3046875 C4.39820713 66.23711304 0.51103078 72.74147622 -5 77 C-11.28878595 80.78827464 -16.74214441 81.54547558 -24 81 C-24.27714844 81.58523438 -24.55429687 82.17046875 -24.83984375 82.7734375 C-28.81525531 90.40301525 -35.1605987 96.78219861 -41 103 C-41.48968262 103.52899902 -41.97936523 104.05799805 -42.48388672 104.60302734 C-65.11364246 128.88879002 -95.61130528 145.78923279 -128 153 C-128.87269531 153.22300781 -129.74539063 153.44601562 -130.64453125 153.67578125 C-137.53776218 155.31278439 -144.97952411 156.04334528 -152 155 C-154.98153023 152.70275539 -155.87625608 151.74246354 -156.5 148 C-155.88054326 144.28325954 -154.87382045 143.36708841 -152 141 C-149.50488281 140.16625977 -149.50488281 140.16625977 -146.703125 139.69140625 C-145.66994141 139.50465332 -144.63675781 139.31790039 -143.57226562 139.12548828 C-141.92774414 138.84680908 -141.92774414 138.84680908 -140.25 138.5625 C-130.17162279 136.694053 -120.64034594 134.50192107 -111 131 C-110.33129883 130.76087891 -109.66259766 130.52175781 -108.97363281 130.27539062 C-83.39065564 120.97900751 -49.13457982 99.56090523 -37 74 C-37.58333333 71.33333333 -37.58333333 71.33333333 -39 69 C-42.22870195 62.41841526 -43.13316202 56.96884034 -40.9375 50 C-38.49607147 44.16130063 -34.36036952 39.62603233 -29.1875 36.0625 C-24.83663416 34.61221139 -20.56140971 34.26142467 -16 34 C-15.87496094 33.03191406 -15.74992188 32.06382812 -15.62109375 31.06640625 C-14.98743626 26.63971291 -14.04100162 22.29892546 -13.0625 17.9375 C-12.89298828 17.16083984 -12.72347656 16.38417969 -12.54882812 15.58398438 C-8.80391037 -1.23254745 -8.80391037 -1.23254745 0 0 Z " fill="#010302" transform="translate(422,272)"/>
<path d="M0 0 C0 13.86 0 27.72 0 42 C-0.33 42 -0.66 42 -1 42 C-1.33 31.44 -1.66 20.88 -2 10 C-8.72331455 18.08358039 -8.72331455 18.08358039 -13.375 26.6875 C-13.83648437 27.72261719 -14.29796875 28.75773437 -14.7734375 29.82421875 C-19.81162009 42.86893991 -20.19510885 58.98727879 -15.25 72.19140625 C-14.8375 73.11824219 -14.425 74.04507813 -14 75 C-13.5875 75.93714844 -13.175 76.87429688 -12.75 77.83984375 C-8.07273545 87.313962 -1.07334426 95.52385353 8 101 C10.7282504 101.78215588 10.7282504 101.78215588 13 102 C13 102.33 13 102.66 13 103 C-2.99609695 103.68663691 -16.15270047 99.78677724 -28.54296875 89.42578125 C-39.06669806 79.03589906 -44.79219679 66.12007844 -45.25 51.375 C-45.08673907 36.71779619 -39.27975337 23.41218175 -29 13 C-20.51526241 6.00804936 -11.30308432 0 0 0 Z " fill="#008F5A" transform="translate(249,205)"/>
<path d="M0 0 C2.5 2.125 2.5 2.125 4 5 C4.07481382 9.26438773 3.64839572 11.23718151 0.875 14.5 C-2.97148295 16.50686067 -4.88546541 16.27176524 -9 15 C-11.5 12.875 -11.5 12.875 -13 10 C-13.07481382 5.73561227 -12.64839572 3.76281849 -9.875 0.5 C-6.02851705 -1.50686067 -4.11453459 -1.27176524 0 0 Z " fill="#F1A00E" transform="translate(408,322)"/>
<path d="M0 0 C3 2.0625 3 2.0625 5 5 C5.06944397 8.95830645 4.5699479 11.14507816 2.375 14.4375 C-0.9617771 16.63274809 -3.08548544 16.55921637 -7 16 C-10.26473709 13.85214665 -10.9058033 12.30475404 -12.0625 8.5625 C-12 5 -12 5 -10 2.0625 C-6.24750505 -0.51734028 -4.46801531 -0.79785988 0 0 Z " fill="#F5A20F" transform="translate(259,360)"/>
<path d="M0 0 C3.74225404 1.1566967 5.28964665 1.79776291 7.4375 5.0625 C8 8.5 8 8.5 7.4375 12.0625 C4.99151113 15.44371991 3.54453441 16.83186783 -0.5625 17.6875 C-4.66953441 16.83186783 -6.11651113 15.44371991 -8.5625 12.0625 C-9.36035988 7.59448469 -9.07984028 5.81499495 -6.5 2.0625 C-3.5625 0.0625 -3.5625 0.0625 0 0 Z " fill="#F2A10F" transform="translate(311.5625,268.9375)"/>
<path d="M0 0 C2.46800047 1.15173355 4.04783565 2.04783565 6 4 C6.35173852 7.79877599 6.52701444 10.14360153 4.5 13.4375 C4.005 13.953125 3.51 14.46875 3 15 C-0.875 14.125 -0.875 14.125 -2 13 C-2.16796875 11.07421875 -2.16796875 11.07421875 -2.1875 8.6875 C-2.20167969 7.90761719 -2.21585937 7.12773437 -2.23046875 6.32421875 C-1.97984413 3.7967332 -1.26373772 2.18281969 0 0 Z " fill="#F8BC5D" transform="translate(313,270)"/>
<path d="M0 0 C3.16115776 1.36983503 3.9927092 1.9890638 6 5 C5.81334503 8.48422612 5.67204701 11.05302467 3.625 13.9375 C2 15 2 15 -1 15 C-2.23184766 12.53630468 -2.16732342 10.8105499 -2.1875 8.0625 C-2.20167969 7.18722656 -2.21585937 6.31195313 -2.23046875 5.41015625 C-2 3 -2 3 0 0 Z " fill="#F8BD5F" transform="translate(406,322)"/>
<path d="M0 0 C2.4375 1.0625 2.4375 1.0625 5 3 C6.1708535 6.95163055 6.36411552 9.0992932 4.8125 12.9375 C3.9153125 13.9584375 3.9153125 13.9584375 3 15 C1.68 15 0.36 15 -1 15 C-2.16297973 12.67404054 -2.16600691 11.21276769 -2.1875 8.625 C-2.20167969 7.85414063 -2.21585938 7.08328125 -2.23046875 6.2890625 C-1.97801607 3.78165112 -1.25193467 2.16738098 0 0 Z " fill="#F6BB5F" transform="translate(258,360)"/>
<path d="M0 0 C0.66644531 0.19335938 1.33289063 0.38671875 2.01953125 0.5859375 C8.63209159 2.4541014 15.22078979 3.88542966 22 5 C22 5.66 22 6.32 22 7 C15.4 7 8.8 7 2 7 C1.34 4.69 0.68 2.38 0 0 Z " fill="#28B682" transform="translate(244,415)"/>
<path d="M0 0 C0.66 0.33 1.32 0.66 2 1 C-2.36884338 7.20835638 -7.90703855 11.60036778 -14 16 C-12.34136495 11.67495164 -9.128959 8.90581175 -5.875 5.75 C-5.31167969 5.19570312 -4.74835938 4.64140625 -4.16796875 4.0703125 C-2.78313972 2.70895515 -1.39216796 1.35385141 0 0 Z " fill="#F7BB5D" transform="translate(124,70)"/>
<path d="M0 0 C-3.465 1.485 -3.465 1.485 -7 3 C-7 2.34 -7 1.68 -7 1 C-7.66 0.67 -8.32 0.34 -9 0 C-5.62182575 -0.84454356 -3.32534757 -1.10844919 0 0 Z " fill="#1C966B" transform="translate(233,101)"/>
<path d="M0 0 C0.33 0.99 0.66 1.98 1 3 C-1.31 4.65 -3.62 6.3 -6 8 C-4.55746343 4.63408134 -2.66735273 2.48952921 0 0 Z " fill="#EAB25B" transform="translate(116,78)"/>
</svg>
