<?xml version="1.0" encoding="UTF-8"?>
<svg version="1.1" xmlns="http://www.w3.org/2000/svg" width="512" height="512">
<path d="M0 0 C1.13501953 0.35505615 1.13501953 0.35505615 2.29296875 0.71728516 C51.93398244 16.67784028 91.3074497 53.33208279 115.25341797 99.03735352 C128.40205294 124.93198275 135.2984104 153.07297681 137 182 C131.39 182.33 125.78 182.66 120 183 C118.82926981 180.65853962 118.68800912 178.8635075 118.421875 176.2578125 C112.97101631 126.23159459 91.22789319 80.48898959 52 48 C16.0484605 19.40563208 -28.93810054 5.87817009 -74.6953125 10.49609375 C-109.81789854 14.78279747 -142.61974306 29.47364049 -169 53 C-169.71285156 53.59167969 -170.42570312 54.18335938 -171.16015625 54.79296875 C-205.7822289 83.58545216 -225.44073982 129.24008304 -230.24511719 173.24511719 C-230.50352728 176.08489371 -230.69252279 178.92113577 -230.82421875 181.76953125 C-231 184 -231 184 -232 186 C-237.61 186 -243.22 186 -249 186 C-245.96844023 134.96120272 -228.3937924 88.3410237 -193 51 C-192.54463867 50.51208984 -192.08927734 50.02417969 -191.62011719 49.52148438 C-143.54039369 -1.7167611 -66.86211503 -21.02967289 0 0 Z " fill="#323232" transform="translate(312,73)"/>
<path d="M0 0 C0.79241089 0.0012085 1.58482178 0.00241699 2.40124512 0.00366211 C44.87361249 0.17891165 83.56478948 16.51498921 113.7265625 46.46875 C139.17751227 72.59964036 153.5625 107.89762351 153.5625 144.375 C147.9525 144.375 142.3425 144.375 136.5625 144.375 C135.53039732 141.27869195 135.24715851 138.40674714 134.96801758 135.16918945 C131.99600685 101.33885452 115.98820628 71.83802307 90.5625 49.375 C86.11686154 45.70673423 81.41415783 42.47807681 76.5625 39.375 C75.48871094 38.67890625 74.41492188 37.9828125 73.30859375 37.265625 C51.53270493 23.99955814 26.97593966 18.14556027 1.6875 18.125 C0.57435425 18.12398788 0.57435425 18.12398788 -0.5612793 18.12295532 C-11.4936385 18.13877147 -21.80993379 18.59374331 -32.4375 21.375 C-33.09427734 21.5306543 -33.75105469 21.68630859 -34.42773438 21.84667969 C-68.2877269 29.90169216 -98.45075633 51.84975697 -116.69677734 81.41552734 C-128.2565109 100.96215398 -133.26308889 121.82630673 -134.4375 144.375 C-140.0475 144.375 -145.6575 144.375 -151.4375 144.375 C-152.83431469 107.01020693 -137.06408651 73.1069777 -111.99853516 46.02636719 C-90.48786875 23.27094842 -61.0490157 8.30353785 -30.4375 2.375 C-29.52830811 2.19839844 -28.61911621 2.02179688 -27.68237305 1.83984375 C-18.4361457 0.22515994 -9.35693081 -0.02647772 0 0 Z " fill="#323232" transform="translate(255.4375,110.625)"/>
<path d="M0 0 C7.24087573 7.72787268 10.45089232 17.41730102 10.1875 27.9375 C9.28903723 38.26194055 5.00089096 47.09422197 -2.5546875 54.17578125 C-6.98266093 57.63082626 -12.08916686 60.9375 -17.8125 60.9375 C-17.8125 114.0675 -17.8125 167.1975 -17.8125 221.9375 C-23.4225 221.9375 -29.0325 221.9375 -34.8125 221.9375 C-34.8125 168.8075 -34.8125 115.6775 -34.8125 60.9375 C-38.2775 60.4425 -38.2775 60.4425 -41.8125 59.9375 C-51.1094465 55.57578322 -58.10729646 47.41963379 -61.8125 37.9375 C-64.64151248 29.37451591 -63.75872637 17.65541275 -60.26953125 9.46875 C-55.23729349 0.72641738 -48.04562688 -5.4653638 -38.8125 -9.3125 C-24.54178246 -12.88017938 -10.96124765 -9.96805388 0 0 Z " fill="#333232" transform="translate(282.8125,225.0625)"/>
<path d="M0 0 C22.61957699 19.00853341 35.71495718 41.94584841 38.703125 71.48046875 C39 75 39 75 39 78 C33.39 78 27.78 78 22 78 C21.7525 76.164375 21.505 74.32875 21.25 72.4375 C17.71226781 49.94240291 8.67989541 28.93579499 -10 15 C-28.98994978 1.62185596 -51.39065923 -3.2900403 -74.3359375 0.6171875 C-87.46349248 3.78011653 -99.81138964 10.1768735 -110 19 C-110.80308594 19.60714844 -111.60617188 20.21429688 -112.43359375 20.83984375 C-127.2676587 33.32574621 -135.11391637 54.10042897 -136.75 72.9375 C-136.8325 74.608125 -136.915 76.27875 -137 78 C-142.61 78 -148.22 78 -154 78 C-154.81254153 53.89460121 -146.45668322 30.92590617 -130.125 13.125 C-117.64938165 0.03269363 -103.27052634 -9.47343157 -86 -15 C-85.02933594 -15.3196875 -84.05867188 -15.639375 -83.05859375 -15.96875 C-55.28085514 -23.47812615 -22.93794745 -17.36392487 0 0 Z " fill="#323232" transform="translate(314,177)"/>
<path d="M0 0 C6.02465916 2.74889391 10.12148331 7.16383378 12.6796875 13.3125 C13.49585441 19.42426149 13.19898663 25.12007365 10.0859375 30.5234375 C6.65680933 34.88605056 2.20006276 38.32824705 -3.3203125 39.3125 C-9.77621211 40.05274413 -15.05900993 39.2916364 -20.3203125 35.3125 C-25.77904584 29.52149593 -27.71456397 24.58526613 -27.59765625 16.6875 C-26.96300522 11.25274186 -24.41929494 6.99549998 -20.3203125 3.4375 C-13.90974995 -1.10331514 -7.71964126 -2.28730111 0 0 Z " fill="#F15951" transform="translate(263.3203125,231.6875)"/>
</svg>
